# xmcd
#
# Track frame offsets:
#	150
#	4162
#	20612
#	42587
#	46100
#	63255
#	79620
#	87775
#	110412
#
# Disc length: 1742 seconds
#
# Revision: 2
# Processed by: cddbd v1.4PL0 Copyright (c) Steve Scherf et al.
# Submitted via: EasyCDDAExtractor 5.0.6
#
DISCID=6406cc09
DTITLE=ÕÅ¾´Ðù - Hins' First
DYEAR=1900
DGENRE=R&B
TTITLE0=First Intro
TTITLE1=Í¸Â¶
TTITLE2=´¥ÃþÐÄÌø
TTITLE3=Interlude
TTITLE4=On Fire
TTITLE5=Í¸Â¶
TTITLE6=Outro
TTITLE7=Ì«Ô¶
TTITLE8=Power in Your Hands
EXTD=
EXTT0=
EXTT1=
EXTT2=
EXTT3=
EXTT4=
EXTT5=
EXTT6=
EXTT7=
EXTT8=
PLAYORDER=
